<?xml version="1.0" encoding="UTF-8"?><svg xmlns="http://www.w3.org/2000/svg" xmlns:xlink="http://www.w3.org/1999/xlink" fill-opacity="1" color-rendering="auto" color-interpolation="auto" text-rendering="auto" stroke="black" stroke-linecap="square" width="2999" stroke-miterlimit="10" shape-rendering="auto" stroke-opacity="1" fill="black" stroke-dasharray="none" font-weight="normal" stroke-width="1" height="903" font-family="'Dialog'" font-style="normal" stroke-linejoin="miter" font-size="12px" stroke-dashoffset="0" image-rendering="auto">
  <!--Generated by ySVG 2.6-->
  <defs id="genericDefs"/>
  <g>
    <defs id="defs1">
      <clipPath clipPathUnits="userSpaceOnUse" id="clipPath1">
        <path d="M0 0 L2999 0 L2999 903 L0 903 L0 0 Z"/>
      </clipPath>
      <clipPath clipPathUnits="userSpaceOnUse" id="clipPath2">
        <path d="M19 -877 L3018 -877 L3018 26 L19 26 L19 -877 Z"/>
      </clipPath>
    </defs>
    <g fill="white" text-rendering="geometricPrecision" shape-rendering="geometricPrecision" transform="translate(-19,877)" stroke="white">
      <rect x="19" width="2999" height="903" y="-877" clip-path="url(#clipPath2)" stroke="none"/>
    </g>
    <g fill="rgb(204,255,204)" text-rendering="geometricPrecision" shape-rendering="geometricPrecision" transform="matrix(1,0,0,1,-19,877)" stroke="rgb(204,255,204)">
      <rect x="292.8576" width="297.738" height="86.3739" y="-255.0431" clip-path="url(#clipPath2)" stroke="none"/>
    </g>
    <g text-rendering="geometricPrecision" stroke-miterlimit="1.45" shape-rendering="geometricPrecision" transform="matrix(1,0,0,1,-19,877)" stroke-linecap="butt">
      <rect fill="none" x="292.8576" width="297.738" height="86.3739" y="-255.0431" clip-path="url(#clipPath2)"/>
      <text x="408.044" xml:space="preserve" y="-155.9537" clip-path="url(#clipPath2)" font-family="sans-serif" stroke="none">Thread.Main</text>
      <text x="302.1739" xml:space="preserve" y="-207.1423" clip-path="url(#clipPath2)" font-family="sans-serif" stroke="none">filesReport = new FilesReport(arguments,fileNames)</text>
    </g>
    <g fill="red" text-rendering="geometricPrecision" shape-rendering="geometricPrecision" transform="matrix(1,0,0,1,-19,877)" stroke="red">
      <path d="M34.4957 -211.8561 L83.6754 -261.0358 L132.855 -211.8561 L83.6754 -162.6764 Z" fill-rule="evenodd" clip-path="url(#clipPath2)" stroke="none"/>
    </g>
    <g text-rendering="geometricPrecision" stroke-miterlimit="1.45" shape-rendering="geometricPrecision" transform="matrix(1,0,0,1,-19,877)" stroke-linecap="butt">
      <path fill="none" d="M34.4957 -211.8561 L83.6754 -261.0358 L132.855 -211.8561 L83.6754 -162.6764 Z" fill-rule="evenodd" clip-path="url(#clipPath2)"/>
    </g>
    <g stroke-linecap="butt" font-size="16px" transform="matrix(1,0,0,1,-19,877)" fill="white" text-rendering="geometricPrecision" font-family="sans-serif" shape-rendering="geometricPrecision" stroke="white" stroke-miterlimit="1.45">
      <text x="57.4527" xml:space="preserve" y="-205.571" clip-path="url(#clipPath2)" stroke="none">START</text>
    </g>
    <g fill="rgb(204,255,204)" text-rendering="geometricPrecision" shape-rendering="geometricPrecision" transform="matrix(1,0,0,1,-19,877)" stroke="rgb(204,255,204)">
      <rect x="647.4725" width="297.738" height="86.3739" y="-255.0431" clip-path="url(#clipPath2)" stroke="none"/>
    </g>
    <g text-rendering="geometricPrecision" stroke-miterlimit="1.45" shape-rendering="geometricPrecision" transform="matrix(1,0,0,1,-19,877)" stroke-linecap="butt">
      <rect fill="none" x="647.4725" width="297.738" height="86.3739" y="-255.0431" clip-path="url(#clipPath2)"/>
      <text x="762.6589" xml:space="preserve" y="-155.9537" clip-path="url(#clipPath2)" font-family="sans-serif" stroke="none">Thread.Main</text>
      <text x="659.2791" xml:space="preserve" y="-214.4928" clip-path="url(#clipPath2)" font-family="sans-serif" stroke="none">ExecutorService service =</text>
      <text x="659.2791" xml:space="preserve" y="-199.7917" clip-path="url(#clipPath2)" font-family="sans-serif" stroke="none">  Executors.newFixedThreadPool(fileNames.length)</text>
    </g>
    <g fill="rgb(204,255,204)" text-rendering="geometricPrecision" shape-rendering="geometricPrecision" transform="matrix(1,0,0,1,-19,877)" stroke="rgb(204,255,204)">
      <rect x="1002.0875" width="297.738" height="86.3739" y="-255.0431" clip-path="url(#clipPath2)" stroke="none"/>
    </g>
    <g text-rendering="geometricPrecision" stroke-miterlimit="1.45" shape-rendering="geometricPrecision" transform="matrix(1,0,0,1,-19,877)" stroke-linecap="butt">
      <rect fill="none" x="1002.0875" width="297.738" height="86.3739" y="-255.0431" clip-path="url(#clipPath2)"/>
      <text x="1117.2739" xml:space="preserve" y="-155.9537" clip-path="url(#clipPath2)" font-family="sans-serif" stroke="none">Thread.Main</text>
      <text x="1016.5717" xml:space="preserve" y="-236.5446" clip-path="url(#clipPath2)" font-family="sans-serif" stroke="none">futures.add(</text>
      <text x="1016.5717" xml:space="preserve" y="-221.8434" clip-path="url(#clipPath2)" font-family="sans-serif" stroke="none">  service.submit(</text>
      <text x="1016.5717" xml:space="preserve" y="-207.1423" clip-path="url(#clipPath2)" font-family="sans-serif" stroke="none">    new CharsReader(fileName,charset,filesReport)</text>
      <text x="1016.5717" xml:space="preserve" y="-192.4411" clip-path="url(#clipPath2)" font-family="sans-serif" stroke="none">  )</text>
      <text x="1016.5717" xml:space="preserve" y="-177.7399" clip-path="url(#clipPath2)" font-family="sans-serif" stroke="none">)</text>
    </g>
    <g fill="rgb(204,255,204)" text-rendering="geometricPrecision" shape-rendering="geometricPrecision" transform="matrix(1,0,0,1,-19,877)" stroke="rgb(204,255,204)">
      <rect x="2065.9323" width="297.738" height="86.3739" y="-169.2528" clip-path="url(#clipPath2)" stroke="none"/>
    </g>
    <g text-rendering="geometricPrecision" stroke-miterlimit="1.45" shape-rendering="geometricPrecision" transform="matrix(1,0,0,1,-19,877)" stroke-linecap="butt">
      <rect fill="none" x="2065.9323" width="297.738" height="86.3739" y="-169.2528" clip-path="url(#clipPath2)"/>
      <text x="2181.1187" xml:space="preserve" y="-70.1635" clip-path="url(#clipPath2)" font-family="sans-serif" stroke="none">Thread.Main</text>
      <text x="2185.4546" xml:space="preserve" y="-121.352" clip-path="url(#clipPath2)" font-family="sans-serif" stroke="none">future.get()</text>
    </g>
    <g fill="rgb(204,255,204)" text-rendering="geometricPrecision" shape-rendering="geometricPrecision" transform="matrix(1,0,0,1,-19,877)" stroke="rgb(204,255,204)">
      <rect x="2420.5472" width="297.738" height="86.3739" y="-169.2528" clip-path="url(#clipPath2)" stroke="none"/>
    </g>
    <g text-rendering="geometricPrecision" stroke-miterlimit="1.45" shape-rendering="geometricPrecision" transform="matrix(1,0,0,1,-19,877)" stroke-linecap="butt">
      <rect fill="none" x="2420.5472" width="297.738" height="86.3739" y="-169.2528" clip-path="url(#clipPath2)"/>
      <text x="2535.7336" xml:space="preserve" y="-70.1635" clip-path="url(#clipPath2)" font-family="sans-serif" stroke="none">Thread.Main</text>
      <text x="2490.7131" xml:space="preserve" y="-121.352" clip-path="url(#clipPath2)" font-family="sans-serif" stroke="none">filesReport.toFile(pathOutput)</text>
    </g>
    <g fill="rgb(204,255,255)" text-rendering="geometricPrecision" shape-rendering="geometricPrecision" transform="matrix(1,0,0,1,-19,877)" stroke="rgb(204,255,255)">
      <rect x="384.7266" y="-525.6786" clip-path="url(#clipPath2)" width="114" rx="4" ry="4" height="100" stroke="none"/>
    </g>
    <g text-rendering="geometricPrecision" stroke-miterlimit="1.45" shape-rendering="geometricPrecision" transform="matrix(1,0,0,1,-19,877)" stroke-linecap="butt">
      <rect x="384.7266" y="-525.6786" clip-path="url(#clipPath2)" fill="none" width="114" rx="4" ry="4" height="100"/>
      <text x="411.0499" xml:space="preserve" y="-505.7568" clip-path="url(#clipPath2)" font-family="sans-serif" stroke="none">FilesReport</text>
    </g>
    <g fill="rgb(204,255,255)" text-rendering="geometricPrecision" shape-rendering="geometricPrecision" transform="matrix(1,0,0,1,-19,877)" stroke="rgb(204,255,255)">
      <rect x="151.1943" y="-525.6786" clip-path="url(#clipPath2)" width="114" rx="4" ry="4" height="100" stroke="none"/>
    </g>
    <g text-rendering="geometricPrecision" stroke-miterlimit="1.45" shape-rendering="geometricPrecision" transform="matrix(1,0,0,1,-19,877)" stroke-linecap="butt">
      <rect x="151.1943" y="-525.6786" clip-path="url(#clipPath2)" fill="none" width="114" rx="4" ry="4" height="100"/>
      <text x="180.5176" xml:space="preserve" y="-505.7568" clip-path="url(#clipPath2)" font-family="sans-serif" stroke="none">FileReport</text>
    </g>
    <g fill="rgb(204,255,255)" text-rendering="geometricPrecision" shape-rendering="geometricPrecision" transform="matrix(1,0,0,1,-19,877)" stroke="rgb(204,255,255)">
      <rect x="1093.9565" y="-525.6786" clip-path="url(#clipPath2)" width="114" rx="4" ry="4" height="100" stroke="none"/>
    </g>
    <g text-rendering="geometricPrecision" stroke-miterlimit="1.45" shape-rendering="geometricPrecision" transform="matrix(1,0,0,1,-19,877)" stroke-linecap="butt">
      <rect x="1093.9565" y="-525.6786" clip-path="url(#clipPath2)" fill="none" width="114" rx="4" ry="4" height="100"/>
      <text x="1115.2729" xml:space="preserve" y="-505.7568" clip-path="url(#clipPath2)" font-family="sans-serif" stroke="none">CharsReader</text>
    </g>
    <g fill="rgb(204,255,255)" text-rendering="geometricPrecision" shape-rendering="geometricPrecision" transform="matrix(1,0,0,1,-19,877)" stroke="rgb(204,255,255)">
      <rect x="1093.9565" y="-685.8989" clip-path="url(#clipPath2)" width="114" rx="4" ry="4" height="100" stroke="none"/>
    </g>
    <g text-rendering="geometricPrecision" stroke-miterlimit="1.45" shape-rendering="geometricPrecision" transform="matrix(1,0,0,1,-19,877)" stroke-linecap="butt">
      <rect x="1093.9565" y="-685.8989" clip-path="url(#clipPath2)" fill="none" width="114" rx="4" ry="4" height="100"/>
      <text x="1129.2769" xml:space="preserve" y="-665.9771" clip-path="url(#clipPath2)" font-family="sans-serif" stroke="none">Callable</text>
    </g>
    <g fill="rgb(204,255,255)" text-rendering="geometricPrecision" shape-rendering="geometricPrecision" transform="matrix(1,0,0,1,-19,877)" stroke="rgb(204,255,255)">
      <rect x="335.9063" y="-649.712" clip-path="url(#clipPath2)" width="155" rx="4" ry="4" height="57" stroke="none"/>
    </g>
    <g text-rendering="geometricPrecision" stroke-miterlimit="1.45" shape-rendering="geometricPrecision" transform="matrix(1,0,0,1,-19,877)" stroke-linecap="butt">
      <rect x="335.9063" y="-649.712" clip-path="url(#clipPath2)" fill="none" width="155" rx="4" ry="4" height="57"/>
      <text x="349.712" xml:space="preserve" y="-632.3088" clip-path="url(#clipPath2)" font-family="sans-serif" stroke="none">ConcurrentCharsReport</text>
    </g>
    <g fill="rgb(204,255,255)" text-rendering="geometricPrecision" shape-rendering="geometricPrecision" transform="matrix(1,0,0,1,-19,877)" stroke="rgb(204,255,255)">
      <rect x="150.9063" y="-649.712" clip-path="url(#clipPath2)" width="155" rx="4" ry="4" height="57" stroke="none"/>
    </g>
    <g text-rendering="geometricPrecision" stroke-miterlimit="1.45" shape-rendering="geometricPrecision" transform="matrix(1,0,0,1,-19,877)" stroke-linecap="butt">
      <rect x="150.9063" y="-649.712" clip-path="url(#clipPath2)" fill="none" width="155" rx="4" ry="4" height="57"/>
      <text x="180.3858" xml:space="preserve" y="-632.3088" clip-path="url(#clipPath2)" font-family="sans-serif" stroke="none">HashCharsReport</text>
    </g>
    <g fill="rgb(204,255,255)" text-rendering="geometricPrecision" shape-rendering="geometricPrecision" transform="matrix(1,0,0,1,-19,877)" stroke="rgb(204,255,255)">
      <rect x="239.9237" y="-761.0025" clip-path="url(#clipPath2)" width="155" rx="4" ry="4" height="57" stroke="none"/>
    </g>
    <g text-rendering="geometricPrecision" stroke-miterlimit="1.45" shape-rendering="geometricPrecision" transform="matrix(1,0,0,1,-19,877)" stroke-linecap="butt">
      <rect x="239.9237" y="-761.0025" clip-path="url(#clipPath2)" fill="none" width="155" rx="4" ry="4" height="57"/>
      <text x="283.4101" xml:space="preserve" y="-743.5994" clip-path="url(#clipPath2)" font-family="sans-serif" stroke="none">CharsReport</text>
    </g>
    <g fill="rgb(204,255,255)" text-rendering="geometricPrecision" shape-rendering="geometricPrecision" transform="matrix(1,0,0,1,-19,877)" stroke="rgb(204,255,255)">
      <rect x="34.4957" y="-76.1761" clip-path="url(#clipPath2)" width="98.3594" rx="4" ry="4" height="86.3739" stroke="none"/>
    </g>
    <g text-rendering="geometricPrecision" stroke-miterlimit="1.45" shape-rendering="geometricPrecision" transform="matrix(1,0,0,1,-19,877)" stroke-linecap="butt">
      <rect x="34.4957" y="-76.1761" clip-path="url(#clipPath2)" fill="none" width="98.3594" rx="4" ry="4" height="86.3739"/>
      <text x="52.3277" xml:space="preserve" y="-57.0525" clip-path="url(#clipPath2)" font-family="sans-serif" stroke="none">Assignment</text>
    </g>
    <g fill="rgb(204,255,255)" text-rendering="geometricPrecision" shape-rendering="geometricPrecision" transform="matrix(1,0,0,1,-19,877)" stroke="rgb(204,255,255)">
      <rect x="739.3416" y="-525.6786" clip-path="url(#clipPath2)" width="114" rx="4" ry="4" height="100" stroke="none"/>
    </g>
    <g text-rendering="geometricPrecision" stroke-miterlimit="1.45" shape-rendering="geometricPrecision" transform="matrix(1,0,0,1,-19,877)" stroke-linecap="butt">
      <rect x="739.3416" y="-525.6786" clip-path="url(#clipPath2)" fill="none" width="114" rx="4" ry="4" height="100"/>
      <text x="750.6501" xml:space="preserve" y="-505.7568" clip-path="url(#clipPath2)" font-family="sans-serif" stroke="none">FixedThreadPool</text>
    </g>
    <g fill="rgb(51,204,204)" text-rendering="geometricPrecision" shape-rendering="geometricPrecision" transform="matrix(1,0,0,1,-19,877)" stroke="rgb(51,204,204)">
      <circle r="47.5563" clip-path="url(#clipPath2)" cx="1505.5714" cy="-475.6786" stroke="none"/>
    </g>
    <g text-rendering="geometricPrecision" stroke-miterlimit="1.45" shape-rendering="geometricPrecision" transform="matrix(1,0,0,1,-19,877)" stroke-linecap="butt">
      <circle fill="none" r="47.5563" clip-path="url(#clipPath2)" cx="1505.5714" cy="-475.6786"/>
      <text x="1486.5665" xml:space="preserve" y="-470.9647" clip-path="url(#clipPath2)" font-family="sans-serif" stroke="none">service</text>
    </g>
    <g fill="rgb(204,255,204)" text-rendering="geometricPrecision" shape-rendering="geometricPrecision" transform="matrix(1,0,0,1,-19,877)" stroke="rgb(204,255,204)">
      <rect x="1356.7024" width="297.738" height="86.3739" y="-341.8744" clip-path="url(#clipPath2)" stroke="none"/>
    </g>
    <g text-rendering="geometricPrecision" stroke-miterlimit="1.45" shape-rendering="geometricPrecision" transform="matrix(1,0,0,1,-19,877)" stroke-linecap="butt">
      <rect fill="none" x="1356.7024" width="297.738" height="86.3739" y="-341.8744" clip-path="url(#clipPath2)"/>
      <text x="1449.2101" xml:space="preserve" y="-242.7851" clip-path="url(#clipPath2)" font-family="sans-serif" stroke="none">Thread.CharsReader</text>
      <text x="1492.5724" xml:space="preserve" y="-293.9737" clip-path="url(#clipPath2)" font-family="sans-serif" stroke="none">call()</text>
    </g>
    <g fill="rgb(204,255,204)" text-rendering="geometricPrecision" shape-rendering="geometricPrecision" transform="matrix(1,0,0,1,-19,877)" stroke="rgb(204,255,204)">
      <rect x="1711.3173" width="297.738" height="86.3739" y="-341.8744" clip-path="url(#clipPath2)" stroke="none"/>
    </g>
    <g text-rendering="geometricPrecision" stroke-miterlimit="1.45" shape-rendering="geometricPrecision" transform="matrix(1,0,0,1,-19,877)" stroke-linecap="butt">
      <rect fill="none" x="1711.3173" width="297.738" height="86.3739" y="-341.8744" clip-path="url(#clipPath2)"/>
      <text x="1803.8251" xml:space="preserve" y="-242.7851" clip-path="url(#clipPath2)" font-family="sans-serif" stroke="none">Thread.CharsReader</text>
      <text x="1735.1385" xml:space="preserve" y="-323.376" clip-path="url(#clipPath2)" font-family="sans-serif" stroke="none">BufferedReader bf =</text>
      <text x="1735.1385" xml:space="preserve" y="-308.6748" clip-path="url(#clipPath2)" font-family="sans-serif" stroke="none">  Files.newBufferedReader(path,this.charset);</text>
      <text x="1735.1385" xml:space="preserve" y="-293.9737" clip-path="url(#clipPath2)" font-family="sans-serif" stroke="none">int c;</text>
      <text x="1735.1385" xml:space="preserve" y="-279.2725" clip-path="url(#clipPath2)" font-family="sans-serif" stroke="none">while ((c = bf.read()) != -1)</text>
      <text x="1735.1385" xml:space="preserve" y="-264.5713" clip-path="url(#clipPath2)" font-family="sans-serif" stroke="none">  this.filesReport.checkAndSet(this.fileName,c);</text>
    </g>
    <g fill="rgb(204,255,255)" text-rendering="geometricPrecision" shape-rendering="geometricPrecision" transform="matrix(1,0,0,1,-19,877)" stroke="rgb(204,255,255)">
      <rect x="1711.3173" y="-525.6786" clip-path="url(#clipPath2)" width="114" rx="4" ry="4" height="100" stroke="none"/>
    </g>
    <g text-rendering="geometricPrecision" stroke-miterlimit="1.45" shape-rendering="geometricPrecision" transform="matrix(1,0,0,1,-19,877)" stroke-linecap="butt">
      <rect x="1711.3173" y="-525.6786" clip-path="url(#clipPath2)" fill="none" width="114" rx="4" ry="4" height="100"/>
      <text x="1737.6406" xml:space="preserve" y="-505.7568" clip-path="url(#clipPath2)" font-family="sans-serif" stroke="none">FilesReport</text>
    </g>
    <g fill="rgb(204,255,255)" text-rendering="geometricPrecision" shape-rendering="geometricPrecision" transform="matrix(1,0,0,1,-19,877)" stroke="rgb(204,255,255)">
      <rect x="1895.0554" y="-525.6786" clip-path="url(#clipPath2)" width="114" rx="4" ry="4" height="100" stroke="none"/>
    </g>
    <g text-rendering="geometricPrecision" stroke-miterlimit="1.45" shape-rendering="geometricPrecision" transform="matrix(1,0,0,1,-19,877)" stroke-linecap="butt">
      <rect x="1895.0554" y="-525.6786" clip-path="url(#clipPath2)" fill="none" width="114" rx="4" ry="4" height="100"/>
      <text x="1924.3787" xml:space="preserve" y="-505.7568" clip-path="url(#clipPath2)" font-family="sans-serif" stroke="none">FileReport</text>
    </g>
    <g fill="rgb(204,255,204)" text-rendering="geometricPrecision" shape-rendering="geometricPrecision" transform="matrix(1,0,0,1,-19,877)" stroke="rgb(204,255,204)">
      <rect x="2065.9323" width="297.738" height="86.3739" y="-341.8744" clip-path="url(#clipPath2)" stroke="none"/>
    </g>
    <g text-rendering="geometricPrecision" stroke-miterlimit="1.45" shape-rendering="geometricPrecision" transform="matrix(1,0,0,1,-19,877)" stroke-linecap="butt">
      <rect fill="none" x="2065.9323" width="297.738" height="86.3739" y="-341.8744" clip-path="url(#clipPath2)"/>
      <text x="2158.4399" xml:space="preserve" y="-242.7851" clip-path="url(#clipPath2)" font-family="sans-serif" stroke="none">Thread.CharsReader</text>
      <text x="2169.5552" xml:space="preserve" y="-293.9737" clip-path="url(#clipPath2)" font-family="sans-serif" stroke="none">return true | false</text>
    </g>
    <g fill="red" text-rendering="geometricPrecision" shape-rendering="geometricPrecision" transform="matrix(1,0,0,1,-19,877)" stroke="red">
      <path d="M2896.2759 -126.0658 L2945.4553 -175.2456 L2994.635 -126.0658 L2945.4553 -76.8861 Z" fill-rule="evenodd" clip-path="url(#clipPath2)" stroke="none"/>
    </g>
    <g text-rendering="geometricPrecision" stroke-miterlimit="1.45" shape-rendering="geometricPrecision" transform="matrix(1,0,0,1,-19,877)" stroke-linecap="butt">
      <path fill="none" d="M2896.2759 -126.0658 L2945.4553 -175.2456 L2994.635 -126.0658 L2945.4553 -76.8861 Z" fill-rule="evenodd" clip-path="url(#clipPath2)"/>
    </g>
    <g stroke-linecap="butt" font-size="16px" transform="matrix(1,0,0,1,-19,877)" fill="white" text-rendering="geometricPrecision" font-family="sans-serif" shape-rendering="geometricPrecision" stroke="white" stroke-miterlimit="1.45">
      <text x="2928.5676" xml:space="preserve" y="-119.7807" clip-path="url(#clipPath2)" stroke="none">END</text>
    </g>
    <g text-rendering="geometricPrecision" stroke-miterlimit="1.45" shape-rendering="geometricPrecision" transform="matrix(1,0,0,1,-19,877)" stroke-linecap="butt">
      <path fill="none" d="M2888.4631 -341.8744 L2991.0684 -341.8744 L3002.4678 -241.8743 L2899.8611 -241.8743 Z" fill-rule="evenodd" clip-path="url(#clipPath2)"/>
      <text x="2913.8918" font-size="16px" y="-285.5893" clip-path="url(#clipPath2)" font-family="sans-serif" stroke="none" xml:space="preserve">report.txt</text>
      <path fill="none" d="M132.8671 -211.8561 L284.8576 -211.8561" clip-path="url(#clipPath2)"/>
      <path d="M292.8576 -211.8561 L280.8576 -216.8561 L283.8576 -211.8561 L280.8576 -206.8561 Z" clip-path="url(#clipPath2)" stroke="none"/>
      <path fill="none" d="M590.5956 -211.8561 L639.4448 -211.8561" clip-path="url(#clipPath2)"/>
      <path d="M647.4448 -211.8561 L635.4448 -216.8561 L638.4448 -211.8561 L635.4448 -206.8561 Z" clip-path="url(#clipPath2)" stroke="none"/>
      <path fill="none" d="M945.2106 -211.8561 L994.0597 -211.8561" clip-path="url(#clipPath2)"/>
      <path d="M1002.0597 -211.8561 L990.0597 -216.8561 L993.0597 -211.8561 L990.0597 -206.8561 Z" clip-path="url(#clipPath2)" stroke="none"/>
      <path fill="none" d="M1299.8256 -211.8561 L1503.2261 -126.0659 L2057.9324 -126.0659" clip-path="url(#clipPath2)"/>
      <path d="M2065.9324 -126.0659 L2053.9324 -131.0659 L2056.9324 -126.0659 L2053.9324 -121.0659 Z" clip-path="url(#clipPath2)" stroke="none"/>
      <path fill="none" d="M2363.6704 -126.0659 L2412.5195 -126.0659" clip-path="url(#clipPath2)"/>
      <path d="M2420.5195 -126.0659 L2408.5195 -131.0659 L2411.5195 -126.0659 L2408.5195 -121.0659 Z" clip-path="url(#clipPath2)" stroke="none"/>
      <path fill="none" d="M441.7266 -425.6644 L441.7266 -262.0431" clip-path="url(#clipPath2)"/>
      <path d="M441.7266 -255.0431 L436.7266 -262.0431 L441.7266 -269.0431 L446.7266 -262.0431 Z" clip-path="url(#clipPath2)" stroke="none"/>
    </g>
    <g stroke-linecap="round" transform="matrix(1,0,0,1,-19,877)" stroke-dashoffset="2" text-rendering="geometricPrecision" shape-rendering="geometricPrecision" stroke-dasharray="0,8" stroke-width="2" stroke-miterlimit="1.45">
      <path fill="none" d="M265.2163 -475.6786 L321.0859 -475.6786 L376.8297 -475.6786" clip-path="url(#clipPath2)"/>
      <path fill="white" d="M384.7047 -475.6786 L376.8297 -470.0536 L368.9547 -475.6786 L376.8297 -481.3036 Z" clip-path="url(#clipPath2)" stroke="none"/>
    </g>
    <g text-rendering="geometricPrecision" stroke-miterlimit="1.45" shape-rendering="geometricPrecision" transform="matrix(1,0,0,1,-19,877)" stroke-linecap="butt">
      <path fill="none" d="M384.7047 -475.6786 L376.8297 -470.0536 L368.9547 -475.6786 L376.8297 -481.3036 Z" clip-path="url(#clipPath2)"/>
    </g>
    <g stroke-linecap="round" transform="matrix(1,0,0,1,-19,877)" stroke-dashoffset="2" text-rendering="geometricPrecision" shape-rendering="geometricPrecision" stroke-dasharray="0,8" stroke-width="2" stroke-miterlimit="1.45">
      <path fill="none" d="M265.1948 -452.0847 L328.1251 -452.0847 L376.8454 -452.0847" clip-path="url(#clipPath2)"/>
      <path fill="white" d="M384.7204 -452.0847 L376.8454 -446.4597 L368.9704 -452.0847 L376.8454 -457.7097 Z" clip-path="url(#clipPath2)" stroke="none"/>
    </g>
    <g text-rendering="geometricPrecision" stroke-miterlimit="1.45" shape-rendering="geometricPrecision" transform="matrix(1,0,0,1,-19,877)" stroke-linecap="butt">
      <path fill="none" d="M384.7204 -452.0847 L376.8454 -446.4597 L368.9704 -452.0847 L376.8454 -457.7097 Z" clip-path="url(#clipPath2)"/>
    </g>
    <g stroke-linecap="round" transform="matrix(1,0,0,1,-19,877)" stroke-dashoffset="2" text-rendering="geometricPrecision" shape-rendering="geometricPrecision" stroke-dasharray="0,8" stroke-width="2" stroke-miterlimit="1.45">
      <path fill="none" d="M265.2227 -496.5596 L376.8663 -496.5596" clip-path="url(#clipPath2)"/>
      <path fill="white" d="M384.7413 -496.5596 L376.8663 -490.9346 L368.9913 -496.5596 L376.8663 -502.1846 Z" clip-path="url(#clipPath2)" stroke="none"/>
    </g>
    <g text-rendering="geometricPrecision" stroke-miterlimit="1.45" shape-rendering="geometricPrecision" transform="matrix(1,0,0,1,-19,877)" stroke-linecap="butt">
      <path fill="none" d="M384.7413 -496.5596 L376.8663 -490.9346 L368.9913 -496.5596 L376.8663 -502.1846 Z" clip-path="url(#clipPath2)"/>
      <path fill="none" d="M1150.9565 -425.6644 L1150.9565 -262.0431" clip-path="url(#clipPath2)"/>
      <path d="M1150.9565 -255.0431 L1145.9565 -262.0431 L1150.9565 -269.0431 L1155.9565 -262.0431 Z" clip-path="url(#clipPath2)" stroke="none"/>
      <path fill="none" d="M1171.4875 -425.6657 L1171.4875 -262.0627" clip-path="url(#clipPath2)"/>
      <path d="M1171.4875 -255.0627 L1166.4875 -262.0627 L1171.4875 -269.0627 L1176.4875 -262.0627 Z" clip-path="url(#clipPath2)" stroke="none"/>
      <path fill="none" d="M1132.2324 -425.7139 L1132.2324 -262.0765" clip-path="url(#clipPath2)"/>
      <path d="M1132.2324 -255.0765 L1127.2324 -262.0765 L1132.2324 -269.0765 L1137.2324 -262.0765 Z" clip-path="url(#clipPath2)" stroke="none"/>
      <path fill="none" stroke-dasharray="6,2" d="M1150.9565 -585.8691 L1150.9565 -540.6894" clip-path="url(#clipPath2)"/>
      <path fill="white" stroke-dasharray="6,2" d="M1150.9565 -525.6894 L1156.9565 -541.6894 L1144.9565 -541.6894 Z" clip-path="url(#clipPath2)" stroke="none"/>
      <path fill="none" d="M1150.9565 -525.6894 L1156.9565 -541.6894 L1144.9565 -541.6894 Z" clip-path="url(#clipPath2)"/>
    </g>
    <g stroke-linecap="round" transform="matrix(1,0,0,1,-19,877)" stroke-dashoffset="2" text-rendering="geometricPrecision" shape-rendering="geometricPrecision" stroke-dasharray="0,8" stroke-width="2" stroke-miterlimit="1.45">
      <path fill="none" d="M418.9584 -592.6809 L430.4892 -533.4259" clip-path="url(#clipPath2)"/>
      <path fill="white" d="M431.9934 -525.6959 L424.9678 -532.3515 L428.985 -541.1559 L436.0106 -534.5004 Z" clip-path="url(#clipPath2)" stroke="none"/>
    </g>
    <g text-rendering="geometricPrecision" stroke-miterlimit="1.45" shape-rendering="geometricPrecision" transform="matrix(1,0,0,1,-19,877)" stroke-linecap="butt">
      <path fill="none" d="M431.9934 -525.6959 L424.9678 -532.3515 L428.985 -541.1559 L436.0106 -534.5004 Z" clip-path="url(#clipPath2)"/>
    </g>
    <g stroke-linecap="round" transform="matrix(1,0,0,1,-19,877)" stroke-dashoffset="2" text-rendering="geometricPrecision" shape-rendering="geometricPrecision" stroke-dasharray="0,8" stroke-width="2" stroke-miterlimit="1.45">
      <path fill="none" d="M224.4438 -592.6809 L216.2242 -533.496" clip-path="url(#clipPath2)"/>
      <path fill="white" d="M215.1408 -525.6959 L210.6526 -534.2698 L217.3075 -541.2962 L221.7957 -532.7222 Z" clip-path="url(#clipPath2)" stroke="none"/>
    </g>
    <g text-rendering="geometricPrecision" stroke-miterlimit="1.45" shape-rendering="geometricPrecision" transform="matrix(1,0,0,1,-19,877)" stroke-linecap="butt">
      <path fill="none" d="M215.1408 -525.6959 L210.6526 -534.2698 L217.3075 -541.2962 L221.7957 -532.7222 Z" clip-path="url(#clipPath2)"/>
      <path fill="none" stroke-dasharray="6,2" d="M342.0052 -704.0006 L379.0133 -661.0902" clip-path="url(#clipPath2)"/>
      <path fill="white" stroke-dasharray="6,2" d="M388.8099 -649.7312 L382.9038 -665.7661 L373.8166 -657.9288 Z" clip-path="url(#clipPath2)" stroke="none"/>
      <path fill="none" d="M388.8099 -649.7312 L382.9038 -665.7661 L373.8166 -657.9288 Z" clip-path="url(#clipPath2)"/>
      <path fill="none" stroke-dasharray="6,2" d="M294.6261 -704.0006 L260.5873 -661.445" clip-path="url(#clipPath2)"/>
      <path fill="white" stroke-dasharray="6,2" d="M251.2178 -649.7312 L265.8975 -658.4781 L256.5264 -665.9737 Z" clip-path="url(#clipPath2)" stroke="none"/>
      <path fill="none" d="M251.2178 -649.7312 L265.8975 -658.4781 L256.5264 -665.9737 Z" clip-path="url(#clipPath2)"/>
      <path fill="none" d="M83.6754 -76.1775 L83.6754 -155.666" clip-path="url(#clipPath2)"/>
      <path d="M83.6754 -162.666 L88.6754 -155.666 L83.6754 -148.666 L78.6754 -155.666 Z" clip-path="url(#clipPath2)" stroke="none"/>
    </g>
    <g stroke-linecap="round" transform="matrix(1,0,0,1,-19,877)" stroke-dashoffset="2" text-rendering="geometricPrecision" shape-rendering="geometricPrecision" stroke-dasharray="0,8" stroke-width="2" stroke-miterlimit="1.45">
      <path fill="none" d="M1093.9463 -475.6786 L857.8413 -475.6786" clip-path="url(#clipPath2)"/>
    </g>
    <g stroke-linecap="round" transform="matrix(1,0,0,1,-19,877)" fill-opacity="0" stroke-dashoffset="2" fill="rgb(0,0,0)" text-rendering="geometricPrecision" shape-rendering="geometricPrecision" stroke-dasharray="0,8" stroke="rgb(0,0,0)" stroke-width="2" stroke-opacity="0" stroke-miterlimit="1.45">
      <path d="M848.8413 -475.6786 C848.8413 -478.1638 850.856 -480.1786 853.3413 -480.1786 C855.8266 -480.1786 857.8413 -478.1638 857.8413 -475.6786 C857.8413 -473.1933 855.8266 -471.1786 853.3413 -471.1786 C850.856 -471.1786 848.8413 -473.1933 848.8413 -475.6786 Z" stroke="none" clip-path="url(#clipPath2)"/>
    </g>
    <g text-rendering="geometricPrecision" stroke-miterlimit="1.45" shape-rendering="geometricPrecision" transform="matrix(1,0,0,1,-19,877)" stroke-linecap="butt">
      <path fill="none" d="M848.8413 -475.6786 C848.8413 -478.1638 850.856 -480.1786 853.3413 -480.1786 C855.8266 -480.1786 857.8413 -478.1638 857.8413 -475.6786 C857.8413 -473.1933 855.8266 -471.1786 853.3413 -471.1786 C850.856 -471.1786 848.8413 -473.1933 848.8413 -475.6786 Z" clip-path="url(#clipPath2)"/>
    </g>
    <g stroke-linecap="round" transform="matrix(1,0,0,1,-19,877)" stroke-dashoffset="2" text-rendering="geometricPrecision" shape-rendering="geometricPrecision" stroke-dasharray="0,8" stroke-width="2" stroke-miterlimit="1.45">
      <path fill="none" d="M1093.9497 -499.8413 L857.8655 -499.8413" clip-path="url(#clipPath2)"/>
    </g>
    <g stroke-linecap="round" transform="matrix(1,0,0,1,-19,877)" fill-opacity="0" stroke-dashoffset="2" fill="rgb(0,0,0)" text-rendering="geometricPrecision" shape-rendering="geometricPrecision" stroke-dasharray="0,8" stroke="rgb(0,0,0)" stroke-width="2" stroke-opacity="0" stroke-miterlimit="1.45">
      <path d="M848.8655 -499.8413 C848.8655 -502.3266 850.8802 -504.3413 853.3655 -504.3413 C855.8508 -504.3413 857.8655 -502.3266 857.8655 -499.8413 C857.8655 -497.356 855.8508 -495.3413 853.3655 -495.3413 C850.8802 -495.3413 848.8655 -497.356 848.8655 -499.8413 Z" stroke="none" clip-path="url(#clipPath2)"/>
    </g>
    <g text-rendering="geometricPrecision" stroke-miterlimit="1.45" shape-rendering="geometricPrecision" transform="matrix(1,0,0,1,-19,877)" stroke-linecap="butt">
      <path fill="none" d="M848.8655 -499.8413 C848.8655 -502.3266 850.8802 -504.3413 853.3655 -504.3413 C855.8508 -504.3413 857.8655 -502.3266 857.8655 -499.8413 C857.8655 -497.356 855.8508 -495.3413 853.3655 -495.3413 C850.8802 -495.3413 848.8655 -497.356 848.8655 -499.8413 Z" clip-path="url(#clipPath2)"/>
    </g>
    <g stroke-linecap="round" transform="matrix(1,0,0,1,-19,877)" stroke-dashoffset="2" text-rendering="geometricPrecision" shape-rendering="geometricPrecision" stroke-dasharray="0,8" stroke-width="2" stroke-miterlimit="1.45">
      <path fill="none" d="M1093.9362 -449.4963 L857.8655 -449.4963" clip-path="url(#clipPath2)"/>
    </g>
    <g stroke-linecap="round" transform="matrix(1,0,0,1,-19,877)" fill-opacity="0" stroke-dashoffset="2" fill="rgb(0,0,0)" text-rendering="geometricPrecision" shape-rendering="geometricPrecision" stroke-dasharray="0,8" stroke="rgb(0,0,0)" stroke-width="2" stroke-opacity="0" stroke-miterlimit="1.45">
      <path d="M848.8655 -449.4963 C848.8655 -451.9816 850.8802 -453.9963 853.3655 -453.9963 C855.8508 -453.9963 857.8655 -451.9816 857.8655 -449.4963 C857.8655 -447.011 855.8508 -444.9963 853.3655 -444.9963 C850.8802 -444.9963 848.8655 -447.011 848.8655 -449.4963 Z" stroke="none" clip-path="url(#clipPath2)"/>
    </g>
    <g text-rendering="geometricPrecision" stroke-miterlimit="1.45" shape-rendering="geometricPrecision" transform="matrix(1,0,0,1,-19,877)" stroke-linecap="butt">
      <path fill="none" d="M848.8655 -449.4963 C848.8655 -451.9816 850.8802 -453.9963 853.3655 -453.9963 C855.8508 -453.9963 857.8655 -451.9816 857.8655 -449.4963 C857.8655 -447.011 855.8508 -444.9963 853.3655 -444.9963 C850.8802 -444.9963 848.8655 -447.011 848.8655 -449.4963 Z" clip-path="url(#clipPath2)"/>
      <path fill="none" d="M796.3416 -425.6644 L796.3416 -262.0431" clip-path="url(#clipPath2)"/>
      <path d="M796.3416 -255.0431 L791.3416 -262.0431 L796.3416 -269.0431 L801.3416 -262.0431 Z" clip-path="url(#clipPath2)" stroke="none"/>
    </g>
    <g stroke-linecap="round" transform="matrix(1,0,0,1,-19,877)" stroke-dashoffset="2" text-rendering="geometricPrecision" shape-rendering="geometricPrecision" stroke-dasharray="0,8" stroke-width="2" stroke-miterlimit="1.45">
      <path fill="none" d="M1207.9667 -475.6786 L1453.5151 -475.6786" clip-path="url(#clipPath2)"/>
    </g>
    <g stroke-linecap="round" transform="matrix(1,0,0,1,-19,877)" fill-opacity="0" stroke-dashoffset="2" fill="rgb(0,0,0)" text-rendering="geometricPrecision" shape-rendering="geometricPrecision" stroke-dasharray="0,8" stroke="rgb(0,0,0)" stroke-width="2" stroke-opacity="0" stroke-miterlimit="1.45">
      <path d="M1462.5151 -475.6786 C1462.5151 -473.1933 1460.5004 -471.1786 1458.0151 -471.1786 C1455.5299 -471.1786 1453.5151 -473.1933 1453.5151 -475.6786 C1453.5151 -478.1638 1455.5299 -480.1786 1458.0151 -480.1786 C1460.5004 -480.1786 1462.5151 -478.1638 1462.5151 -475.6786 Z" stroke="none" clip-path="url(#clipPath2)"/>
    </g>
    <g text-rendering="geometricPrecision" stroke-miterlimit="1.45" shape-rendering="geometricPrecision" transform="matrix(1,0,0,1,-19,877)" stroke-linecap="butt">
      <path fill="none" d="M1462.5151 -475.6786 C1462.5151 -473.1933 1460.5004 -471.1786 1458.0151 -471.1786 C1455.5299 -471.1786 1453.5151 -473.1933 1453.5151 -475.6786 C1453.5151 -478.1638 1455.5299 -480.1786 1458.0151 -480.1786 C1460.5004 -480.1786 1462.5151 -478.1638 1462.5151 -475.6786 Z" clip-path="url(#clipPath2)"/>
    </g>
    <g stroke-linecap="round" transform="matrix(1,0,0,1,-19,877)" stroke-dashoffset="2" text-rendering="geometricPrecision" shape-rendering="geometricPrecision" stroke-dasharray="0,8" stroke-width="2" stroke-miterlimit="1.45">
      <path fill="none" d="M1207.9541 -502.2482 L1461.6001 -502.2482" clip-path="url(#clipPath2)"/>
    </g>
    <g stroke-linecap="round" transform="matrix(1,0,0,1,-19,877)" fill-opacity="0" stroke-dashoffset="2" fill="rgb(0,0,0)" text-rendering="geometricPrecision" shape-rendering="geometricPrecision" stroke-dasharray="0,8" stroke="rgb(0,0,0)" stroke-width="2" stroke-opacity="0" stroke-miterlimit="1.45">
      <path d="M1470.6001 -502.2482 C1470.6001 -499.7629 1468.5853 -497.7482 1466.1001 -497.7482 C1463.6149 -497.7482 1461.6001 -499.7629 1461.6001 -502.2482 C1461.6001 -504.7335 1463.6149 -506.7482 1466.1001 -506.7482 C1468.5853 -506.7482 1470.6001 -504.7335 1470.6001 -502.2482 Z" stroke="none" clip-path="url(#clipPath2)"/>
    </g>
    <g text-rendering="geometricPrecision" stroke-miterlimit="1.45" shape-rendering="geometricPrecision" transform="matrix(1,0,0,1,-19,877)" stroke-linecap="butt">
      <path fill="none" d="M1470.6001 -502.2482 C1470.6001 -499.7629 1468.5853 -497.7482 1466.1001 -497.7482 C1463.6149 -497.7482 1461.6001 -499.7629 1461.6001 -502.2482 C1461.6001 -504.7335 1463.6149 -506.7482 1466.1001 -506.7482 C1468.5853 -506.7482 1470.6001 -504.7335 1470.6001 -502.2482 Z" clip-path="url(#clipPath2)"/>
    </g>
    <g stroke-linecap="round" transform="matrix(1,0,0,1,-19,877)" stroke-dashoffset="2" text-rendering="geometricPrecision" shape-rendering="geometricPrecision" stroke-dasharray="0,8" stroke-width="2" stroke-miterlimit="1.45">
      <path fill="none" d="M1207.9539 -451.1964 L1460.2804 -451.1964" clip-path="url(#clipPath2)"/>
    </g>
    <g stroke-linecap="round" transform="matrix(1,0,0,1,-19,877)" fill-opacity="0" stroke-dashoffset="2" fill="rgb(0,0,0)" text-rendering="geometricPrecision" shape-rendering="geometricPrecision" stroke-dasharray="0,8" stroke="rgb(0,0,0)" stroke-width="2" stroke-opacity="0" stroke-miterlimit="1.45">
      <path d="M1469.2804 -451.1964 C1469.2804 -448.7111 1467.2656 -446.6964 1464.7804 -446.6964 C1462.2952 -446.6964 1460.2804 -448.7111 1460.2804 -451.1964 C1460.2804 -453.6817 1462.2952 -455.6964 1464.7804 -455.6964 C1467.2656 -455.6964 1469.2804 -453.6817 1469.2804 -451.1964 Z" stroke="none" clip-path="url(#clipPath2)"/>
    </g>
    <g text-rendering="geometricPrecision" stroke-miterlimit="1.45" shape-rendering="geometricPrecision" transform="matrix(1,0,0,1,-19,877)" stroke-linecap="butt">
      <path fill="none" d="M1469.2804 -451.1964 C1469.2804 -448.7111 1467.2656 -446.6964 1464.7804 -446.6964 C1462.2952 -446.6964 1460.2804 -448.7111 1460.2804 -451.1964 C1460.2804 -453.6817 1462.2952 -455.6964 1464.7804 -455.6964 C1467.2656 -455.6964 1469.2804 -453.6817 1469.2804 -451.1964 Z" clip-path="url(#clipPath2)"/>
      <path fill="none" d="M796.3416 -525.7072 L796.3416 -714.6491 L1505.5714 -714.6491 L1505.5714 -523.2349" clip-path="url(#clipPath2)"/>
      <path fill="none" d="M1505.5714 -428.1223 L1505.5714 -348.8745" clip-path="url(#clipPath2)"/>
      <path d="M1505.5714 -341.8745 L1500.5714 -348.8745 L1505.5714 -355.8745 L1510.5714 -348.8745 Z" clip-path="url(#clipPath2)" stroke="none"/>
      <path fill="none" d="M1529.9937 -434.8306 L1529.9937 -348.8994" clip-path="url(#clipPath2)"/>
      <path d="M1529.9937 -341.8994 L1524.9937 -348.8994 L1529.9937 -355.8994 L1534.9937 -348.8994 Z" clip-path="url(#clipPath2)" stroke="none"/>
      <path fill="none" d="M1482.4172 -434.11 L1482.4172 -348.8779" clip-path="url(#clipPath2)"/>
      <path d="M1482.4172 -341.8779 L1477.4172 -348.8779 L1482.4172 -355.8779 L1487.4172 -348.8779 Z" clip-path="url(#clipPath2)" stroke="none"/>
      <path fill="none" d="M1654.4404 -298.6875 L1703.2896 -298.6875" clip-path="url(#clipPath2)"/>
      <path d="M1711.2896 -298.6875 L1699.2896 -303.6875 L1702.2896 -298.6875 L1699.2896 -293.6875 Z" clip-path="url(#clipPath2)" stroke="none"/>
      <path fill="none" d="M1768.3174 -341.8987 L1768.3174 -414.6688" clip-path="url(#clipPath2)" stroke="red"/>
      <path fill="red" d="M1768.3174 -425.6688 L1762.3174 -413.6688 L1774.3174 -413.6688 Z" clip-path="url(#clipPath2)" stroke="none"/>
      <path fill="none" stroke-dasharray="6,2" d="M498.714 -475.6786 L620.046 -475.6786 L620.046 -793.9378 L1768.3174 -793.9378 L1768.3174 -525.6884" clip-path="url(#clipPath2)"/>
      <path fill="none" stroke-dasharray="6,2" d="M151.1695 -475.6786 L41.2367 -475.6786 L41.2367 -861.3051 L1952.0554 -861.3051 L1952.0554 -525.6884" clip-path="url(#clipPath2)"/>
      <path fill="none" d="M1884.0334 -475.6786 L1825.3394 -475.6786" clip-path="url(#clipPath2)" stroke="red"/>
      <path fill="red" d="M1895.0334 -475.6786 L1883.0334 -481.6786 L1883.0334 -469.6786 Z" clip-path="url(#clipPath2)" stroke="none"/>
      <path fill="none" d="M1884.0308 -452.0847 L1825.2941 -452.0847" clip-path="url(#clipPath2)" stroke="red"/>
      <path fill="red" d="M1895.0308 -452.0847 L1883.0308 -458.0847 L1883.0308 -446.0847 Z" clip-path="url(#clipPath2)" stroke="none"/>
      <path fill="none" d="M1884.0599 -496.5596 L1825.3511 -496.5596" clip-path="url(#clipPath2)" stroke="red"/>
      <path fill="red" d="M1895.0599 -496.5596 L1883.0599 -502.5596 L1883.0599 -490.5596 Z" clip-path="url(#clipPath2)" stroke="none"/>
      <path fill="none" d="M2009.0554 -298.6875 L2057.9045 -298.6875" clip-path="url(#clipPath2)"/>
      <path d="M2065.9045 -298.6875 L2053.9045 -303.6875 L2056.9045 -298.6875 L2053.9045 -293.6875 Z" clip-path="url(#clipPath2)" stroke="none"/>
      <path fill="none" d="M2112.1128 -255.4755 L2112.1128 -177.274" clip-path="url(#clipPath2)"/>
      <path d="M2112.1128 -169.274 L2117.1128 -181.274 L2112.1128 -178.274 L2107.1128 -181.274 Z" clip-path="url(#clipPath2)" stroke="none"/>
      <path fill="none" d="M2133.6184 -255.4785 L2133.6184 -177.2606" clip-path="url(#clipPath2)"/>
      <path d="M2133.6184 -169.2606 L2138.6184 -181.2606 L2133.6184 -178.2606 L2128.6184 -181.2606 Z" clip-path="url(#clipPath2)" stroke="none"/>
      <path fill="none" d="M2091.4402 -255.4817 L2091.4402 -177.2644" clip-path="url(#clipPath2)"/>
      <path d="M2091.4402 -169.2644 L2096.4402 -181.2644 L2091.4402 -178.2644 L2086.4402 -181.2644 Z" clip-path="url(#clipPath2)" stroke="none"/>
      <path fill="none" d="M2718.3286 -126.0659 L2888.2478 -126.0659" clip-path="url(#clipPath2)"/>
      <path d="M2896.2478 -126.0659 L2884.2478 -131.0659 L2887.2478 -126.0659 L2884.2478 -121.0659 Z" clip-path="url(#clipPath2)" stroke="none"/>
      <path fill="none" d="M2800.2393 -127.255 L2800.2393 -291.8745 L2886.1482 -291.8745" clip-path="url(#clipPath2)"/>
      <path d="M2894.1482 -291.8745 L2882.1482 -296.8745 L2885.1482 -291.8745 L2882.1482 -286.8745 Z" clip-path="url(#clipPath2)" stroke="none"/>
    </g>
  </g>
</svg>
